<?xml version="1.0" encoding="utf-8"?>
<!-- Generator: Adobe Illustrator 16.0.3, SVG Export Plug-In . SVG Version: 6.00 Build 0)  -->
<!DOCTYPE svg PUBLIC "-//W3C//DTD SVG 1.1//EN" "http://www.w3.org/Graphics/SVG/1.1/DTD/svg11.dtd">
<svg version="1.1" id="Capa_1" xmlns="http://www.w3.org/2000/svg" xmlns:xlink="http://www.w3.org/1999/xlink" x="0px" y="0px"
	 width="960px" height="560px" viewBox="0 0 960 560" enable-background="new 0 0 960 560" xml:space="preserve">
<path fill-rule="evenodd" clip-rule="evenodd" fill="#E55100" d="M49.62,201.884c55.817-0.038,111.634-0.039,167.451-0.198
	c3.696-0.011,3.926,1.414,3.648,4.389c-1.92,20.557-3.696,41.126-5.554,61.688c-2.504,27.691-5.036,55.381-7.565,83.07
	c-0.591,6.467-1.336,12.922-1.771,19.398c-0.163,2.43-1.119,3.295-3.42,3.949c-21.422,6.082-42.801,12.32-64.184,18.541
	c-2.164,0.629-4.208,0.434-6.343-0.189c-21.216-6.193-42.422-12.426-63.699-18.408c-3.153-0.887-4.209-2.277-4.467-5.402
	c-4.017-48.623-8.101-97.24-12.328-145.844c-0.318-3.661,0.308-7.579-1.769-10.995C49.62,208.55,49.62,205.217,49.62,201.884z"/>
<path fill-rule="evenodd" clip-rule="evenodd" fill="#F4E11D" d="M566.464,394.818c-33.824,0-67.648-0.066-101.479,0.09
	c-3.904,0.018-4.965-0.973-4.956-4.926c0.13-61.481,0.133-122.963-0.005-184.444c-0.01-4.057,1.223-4.885,5.027-4.879
	c67.654,0.109,135.303,0.119,202.947-0.016c4.154-0.008,5.217,1.061,5.207,5.21c-0.139,61.314-0.143,122.63,0.008,183.944
	c0.012,4.283-1.238,5.135-5.281,5.114C634.11,394.746,600.286,394.818,566.464,394.818z"/>
<path fill-rule="evenodd" clip-rule="evenodd" fill="#0070B9" d="M342.949,201.894c27.49,0,54.98,0.082,82.47-0.092
	c3.968-0.025,5.012,0.924,4.62,4.937c-5.106,52.356-10.053,104.729-15.048,157.097c-1.087,11.385-1.106,11.374-12.111,14.297
	c-18.955,5.034-37.916,10.045-56.846,15.175c-2.194,0.595-4.121,0.596-6.31-0.002c-21.484-5.866-42.989-11.653-64.51-17.382
	c-2.685-0.714-3.923-1.73-4.209-4.899c-4.411-48.745-9.031-97.471-13.585-146.203c-0.573-6.133-0.66-12.342-1.693-18.393
	c-0.708-4.151,0.662-4.62,4.251-4.604C287.635,201.95,315.292,201.894,342.949,201.894z"/>
<path fill-rule="evenodd" clip-rule="evenodd" fill="#FEFEFE" d="M135.597,353.947c-12.296-4.063-24.577-8.174-36.902-12.148
	c-2.337-0.752-3.559-1.85-3.686-4.445c-0.352-7.146-0.852-14.287-1.448-21.416c-0.203-2.432,0.583-3.199,2.998-3.113
	c4.489,0.162,8.992,0.162,13.481,0.002c2.481-0.09,3.438,0.588,3.612,3.266c0.63,9.691,0.708,9.805,10.195,12.68
	c3.879,1.176,7.493,3.471,11.779,3.146c3.7-3.426,8.588-4.219,13.116-5.666c3.619-1.156,5.461-3.07,5.931-6.924
	c0.486-3.979,0.322-7.945,0.597-11.908c0.21-3.037-1.052-4.23-4.016-4.154c-3.313,0.084-6.633,0.045-9.949,0
	c-1.98-0.027-4.012,0.121-5.709-1.238c-12.943-0.057-25.887-0.156-38.83-0.137c-2.447,0.004-3.922-0.199-4.122-3.316
	c-1.19-18.542-2.604-37.07-3.941-55.603c1.509-1.065,3.228-0.543,4.841-0.55c10.971-0.051,21.974,0.496,32.907-0.153
	c15.251-0.905,30.492-1.019,45.75-1c1.662,0.002,3.323,0.031,4.986,0.076c3.936,0.107,5.806,1.937,5.296,6.001
	c-0.352,2.804-0.156,5.653-0.512,8.459c-0.766,6.054-2.246,7.567-8.276,7.618c-12.464,0.105-24.93,0.087-37.397-0.016
	c-7.776-0.064-15.583-0.809-23.3,0.527c-2.116,4.874-0.869,9.686,0.384,14.42c0.584,2.206,2.81,1.999,4.596,2.032
	c5.941,0.111,11.885-0.025,17.833,0.055c10.479-0.14,20.952-0.049,31.426-0.047c1.164,0,2.326,0.063,3.484,0.188
	c9.037,0.975,9.333,1.852,8.769,10.981c-0.82,13.256-1.967,26.496-2.36,39.773c-0.265,8.963-0.925,9.906-9.316,12.91
	c-8.61,3.08-17.229,6.127-25.939,8.912C139.85,353.805,137.832,354.83,135.597,353.947z"/>
<path fill-rule="evenodd" clip-rule="evenodd" fill="#FE6D00" d="M110.76,262.866c3.848-1.469,7.858-0.624,11.774-0.673
	c17.477-0.22,34.958-0.367,52.435-0.194c3.928,0.039,5.211-1.251,5.259-4.886c0.043-3.322,0.108-6.705,0.758-9.942
	c0.722-3.6-0.283-4.524-3.899-4.481c-15.813,0.188-31.629,0.074-47.444,0.109c-13.647,0.03-27.294,0.115-40.941,0.174
	c1.393-1.819,3.384-1.038,5.106-1.048c11.818-0.069,23.643-0.259,35.452,0.071c4.849,0.136,7.041-0.865,6.452-6.226
	c-0.506-4.604-0.015-9.312-0.138-13.97c-0.069-2.609,0.552-3.976,3.566-3.963c20.64,0.089,41.282,0.103,61.921-0.008
	c3.521-0.019,3.714,1.835,3.475,4.447c-1.327,14.478-2.579,28.963-3.956,43.438c-1.58,16.608-3.342,33.198-4.87,49.809
	c-0.864,9.389-1.346,18.809-2.141,28.203c-0.39,4.617-1.18,9.188-1.038,13.859c0.095,3.135-1.967,4.592-4.854,5.422
	c-16.239,4.666-32.469,9.369-48.649,14.232c-3.103,0.932-3.442-0.389-3.43-2.818c0.033-6.824,0.005-13.65,0-20.475
	c11.59-4.02,23.128-8.203,34.803-11.959c3.616-1.162,4.838-2.951,5.029-6.629c0.845-16.271,1.886-32.535,3.076-48.785
	c0.248-3.377-0.809-4.189-4.003-4.197c-12.965-0.025-25.93-0.293-38.896-0.471c-2.608-3.736-1.458-7.998-1.455-12.015
	c0.003-4.016-1.407-5.71-5.491-5.513c-4.108,0.199-8.237,0.101-12.355,0.006C114.349,264.34,112.306,264.473,110.76,262.866z"/>
<path fill-rule="evenodd" clip-rule="evenodd" fill="#FE6D00" d="M135.596,302.027c6.148-0.057,12.297-0.074,18.444-0.191
	c2.104-0.039,3.372,0.119,3.052,2.928c-0.658,5.773-0.903,11.596-1.296,17.398c-0.113,1.672-0.07,3.164-2.27,3.834
	c-6.01,1.832-11.939,3.93-17.9,5.922C135.616,321.955,135.606,311.99,135.596,302.027z"/>
<path fill-rule="evenodd" clip-rule="evenodd" d="M620.896,365.609c-13.262-0.594-24.279-5.363-32.307-16.26
	c-1.787-2.426-2.283-4.115,1.01-5.789c3.395-1.726,6.621-3.86,9.68-6.143c2.402-1.793,3.484-1.619,5.287,1.015
	c5.297,7.743,14.238,10.816,22.729,8.234c3.787-1.151,7.049-3.023,7.834-7.457c0.822-4.639-1.592-7.586-5.086-10.001
	c-2.768-1.912-5.91-3.003-9.063-4.061c-6.514-2.186-12.617-5.154-18-9.469c-10.359-8.306-13.666-19.318-9.709-32.143
	c3.18-10.307,12.553-17.081,25.164-17.914c11.898-0.785,21.914,2.955,29.316,12.712c1.615,2.131,1.9,3.713-0.854,5.056
	c-1.334,0.65-2.508,1.628-3.768,2.437c-2.656,1.704-5.18,4.423-8.02,4.807c-2.918,0.396-4.074-3.771-6.389-5.559
	c-4.885-3.777-10.238-3.002-14.857,2.412c-3.025,3.544-2.307,7.677,1.873,11.842c1.961,1.955,4.461,2.852,6.846,3.994
	c5.24,2.512,10.52,4.947,15.771,7.441c13.281,6.309,18.791,17.11,16.752,32.799c-1.324,10.178-11.004,18.836-23.791,21.053
	C627.888,365.21,624.37,365.292,620.896,365.609z"/>
<path fill-rule="evenodd" clip-rule="evenodd" d="M575.124,305.535c0,10.819,0.035,21.64-0.01,32.459
	c-0.057,14.409-9.893,25.436-24.25,26.898c-13.66,1.393-25.398-2.013-33.34-14.238c-1.646-2.535-1.953-4.496,1.326-5.823
	c0.76-0.307,1.42-0.858,2.127-1.295c3.105-1.925,6.057-5.018,9.359-5.453c3.488-0.461,4.574,4.505,7.264,6.586
	c3.766,2.916,7.549,4.028,12.006,1.908c4.33-2.06,5.658-5.599,5.625-10.187c-0.152-21.306-0.029-42.613-0.336-63.916
	c-0.061-4.136,1.24-5.059,4.979-4.778c3.973,0.298,7.994,0.228,11.977,0.011c2.674-0.145,3.359,0.773,3.33,3.372
	C575.048,282.563,575.124,294.049,575.124,305.535z"/>
<path fill-rule="evenodd" clip-rule="evenodd" fill="#FEFEFE" d="M343.17,298.016c-14.966-0.03-29.934-0.19-44.898,0.002
	c-3.661,0.047-5.009-0.951-5.092-4.638c-0.108-4.81-0.532-9.644-1.277-14.395c-0.465-2.967,0.665-4.047,3.184-5.058
	c13.09-5.251,26.113-10.667,39.154-16.04c1.769-0.729,3.5-1.549,5.071-3.337c-8.221,0-16.441,0.023-24.662-0.007
	c-7.153-0.026-14.308-0.24-21.458-0.112c-2.899,0.052-4.07-0.643-4.195-3.798c-0.217-5.471-1.017-10.918-1.572-16.375
	c0.344-0.345,0.639-0.732,1.223-0.715c0.497,0.017,0.999-0.035,1.498-0.023c32.793,0.777,65.554-1.524,98.346-1.041
	c9.793,0.144,10.994,1.391,9.922,11.12c-1.376,12.491-1.396,12.446-12.947,17.558c-11.479,5.078-22.986,10.088-33.748,14.477
	c11.679-0.299,24.304-0.227,36.924-0.033c4.896,0.074,6.317,1.807,5.88,7.129c-0.736,8.956-1.213,17.938-2.088,26.875
	c-1.021,10.437-1.343,20.931-2.741,31.333c-0.36,2.681-1.196,4.831-4.048,5.66c-13.277,3.856-26.581,7.615-40.054,10.742
	c-0.822,0.191-1.656,0.068-2.435-0.303c-14.205-4.075-28.403-8.171-42.62-12.204c-2.198-0.623-3.149-1.732-3.343-4.152
	c-0.759-9.449-1.693-18.888-2.775-28.306c-0.315-2.747,0.487-3.51,3.131-3.341c5.48,0.352,10.973,0.577,16.463,0.657
	c2.361,0.034,3.205,0.918,3.238,3.238c0.033,2.317,0.919,4.679,0.66,6.933c-0.69,6.003,2.569,8.16,7.743,9.032
	c5.954,1.003,11.325,4.479,17.593,4.218c4.177-3.666,9.633-4.351,14.625-5.892c5.221-1.612,8.213-3.943,8.296-9.93
	c0.057-4.082,0.552-8.259,1.176-12.368c0.688-4.534-0.052-5.339-4.572-5.466c-4.646-0.131-9.295-0.005-13.943-0.051
	C346.84,299.387,344.811,299.474,343.17,298.016z"/>
<path fill-rule="evenodd" clip-rule="evenodd" fill="#2AA7E1" d="M343.157,357.037c13.263-3.703,26.492-7.534,39.812-11.025
	c3.692-0.969,5.269-2.241,5.539-6.485c1.209-18.915,2.828-37.808,4.632-56.677c0.466-4.87-0.783-6.178-5.71-6.042
	c-13.304,0.367-26.625,0.126-40.325,0.126c1.263-1.86,3.151-2.106,4.668-2.771c13.547-5.928,27.105-11.83,40.734-17.563
	c2.649-1.113,3.841-2.432,3.82-5.447c-0.031-4.645,0.486-9.297,0.844-13.941c0.168-2.173-0.285-3.363-2.898-3.35
	c-35.616,0.182-71.232,0.279-106.848,0.397c1.251-2.097,3.305-1.144,4.976-1.153c14.982-0.08,29.968-0.193,44.947,0.045
	c4.389,0.069,6.381-0.865,5.922-5.709c-0.438-4.62,0.001-9.316-0.127-13.975c-0.071-2.577,0.886-3.513,3.481-3.505
	c21.309,0.065,42.618,0.071,63.927-0.007c2.83-0.01,3.896,0.98,3.671,3.795c-0.804,10.075-1.422,20.165-2.278,30.234
	c-0.813,9.562-1.865,19.102-2.763,28.655c-1.3,13.841-2.593,27.682-3.814,41.529c-0.801,9.074-1.415,18.165-2.213,27.239
	c-0.536,6.097-1.421,12.166-1.797,18.27c-0.161,2.607-1.534,3.363-3.572,3.936c-17.068,4.79-34.148,9.539-51.179,14.457
	c-2.753,0.795-3.529,0.255-3.47-2.556C343.264,369.358,343.164,363.197,343.157,357.037z"/>
<path fill-rule="evenodd" clip-rule="evenodd" fill="#2AA7E1" d="M343.17,298.016c7.638-0.087,15.278-0.082,22.911-0.308
	c2.834-0.084,3.363,1.188,3.105,3.6c-0.772,7.261-1.492,14.526-2.168,21.797c-0.156,1.676-0.794,2.778-2.461,3.298
	c-7.111,2.215-14.209,4.47-21.312,6.71C343.22,321.413,343.195,309.715,343.17,298.016z"/>
<path fill-rule="evenodd" clip-rule="evenodd" fill="#E55101" d="M110.76,262.866c6.653,0.006,13.318,0.26,19.955-0.074
	c4.116-0.208,5.19,1.326,4.959,5.146c-0.281,4.641-0.067,9.311-0.067,13.968c-7.152,0.061-14.305,0.111-21.458,0.191
	c-1.473,0.018-2.554-0.186-2.653-2.058C111.19,274.318,109.834,268.643,110.76,262.866z"/>
<path d="M708.777,200.644h193.111v193.11H708.777V200.644z"/>
<circle fill="#00CCCC" cx="805.184" cy="297.082" r="16.149"/>
<path fill="none" stroke="#00CCCC" stroke-width="4" stroke-miterlimit="10" d="M805.184,264.25c21.676,0,41.818,3.112,57,8.336
	c18.294,6.297,29.545,15.845,29.545,24.49c0,9.008-11.922,19.153-31.567,25.659c-14.852,4.92-34.4,7.492-54.978,7.492
	c-21.102,0-41.076-2.413-56.1-7.547c-19.002-6.494-30.451-16.768-30.451-25.604c0-8.575,10.744-18.049,28.781-24.334
	C762.655,267.431,783.293,264.25,805.184,264.25L805.184,264.25z"/>
<path fill="none" stroke="#00CCCC" stroke-width="4" stroke-miterlimit="10" d="M776.605,280.762
	c10.828-18.78,23.588-34.672,35.702-45.212c14.595-12.7,28.487-17.675,35.974-13.357c7.802,4.499,10.637,19.895,6.458,40.169
	c-3.16,15.328-10.694,33.54-20.979,51.37c-10.54,18.277-22.611,34.378-34.561,44.828c-15.118,13.218-29.74,18-37.394,13.587
	c-7.429-4.285-10.269-18.32-6.708-37.091C758.11,319.187,765.666,299.724,776.605,280.762L776.605,280.762z"/>
<path fill="none" stroke="#00CCCC" stroke-width="4" stroke-miterlimit="10" d="M776.633,313.769
	c-10.86-18.763-18.259-37.75-21.341-53.51c-3.716-18.988-1.09-33.508,6.393-37.836c7.797-4.515,22.548,0.721,38.023,14.462
	c11.703,10.391,23.716,26.017,34.026,43.829c10.571,18.263,18.496,36.76,21.576,52.326c3.9,19.702,0.741,34.758-6.905,39.182
	c-7.424,4.295-21-0.251-35.484-12.711C800.69,348.979,787.599,332.715,776.633,313.769L776.633,313.769z"/>
</svg>
