<?xml version="1.0" encoding="utf-8"?>
<!-- Generator: Adobe Illustrator 16.0.3, SVG Export Plug-In . SVG Version: 6.00 Build 0)  -->
<!DOCTYPE svg PUBLIC "-//W3C//DTD SVG 1.1//EN" "http://www.w3.org/Graphics/SVG/1.1/DTD/svg11.dtd">
<svg version="1.1" xmlns="http://www.w3.org/2000/svg" xmlns:xlink="http://www.w3.org/1999/xlink" x="0px" y="0px" width="960px"
	 height="560px" viewBox="0 0 960 560" enable-background="new 0 0 960 560" xml:space="preserve">
<g id="Capa_1">
	<path fill-rule="evenodd" clip-rule="evenodd" fill="#52AFE6" d="M39.912,347.984c-0.017-10.16-0.094-20.319-0.033-30.479
		c0.055-8.953-0.117-17.909,0.246-26.861c0.07-1.74,0.655-2.668,2.151-3.521c17.625-10.038,35.212-20.143,52.803-30.24
		c10.442-5.994,20.878-11.998,31.303-18.021c0.949-0.548,1.762-0.573,2.715-0.021c9.062,5.247,18.132,10.478,27.212,15.695
		c11.354,6.525,22.72,13.028,34.077,19.549c7.849,4.506,15.691,9.026,23.537,13.538c0.846,0.486,1.382,1.143,1.29,2.183
		c-0.02,0.224-0.001,0.451-0.001,0.677c0.019,32.296,0.038,64.591,0.05,96.887c0,0.521-0.09,1.042-0.139,1.563
		c-0.939,0.233-0.879-0.566-0.986-1.049c-0.229-1.033-0.129-2.1-0.129-3.152c-0.003-30.273,0-60.547-0.016-90.82
		c0-0.951,0.445-2.25-0.407-2.768c-1-0.607-1.936,0.5-2.798,1.021c-5.929,3.584-11.994,6.932-17.962,10.447
		c-0.648,0.383-1.285,0.792-2.046,0.916c-0.719,0.082-1.304-0.266-1.895-0.602c-16.468-9.408-33.04-18.629-49.488-28.072
		c-3.261-1.873-6.59-3.637-9.832-5.543c-1.535-0.903-2.773-0.65-4.196,0.152c-8.524,4.804-17.029,9.641-25.527,14.489
		c-10.391,5.93-20.803,11.822-31.222,17.703c-1.799,1.016-2.483,2.152-2.474,4.266c0.091,22.21,0.064,44.422,0.026,66.633
		c-0.002,1.061,0.572,2.44-0.963,3.081c-1.113-1.115-0.752-2.543-0.754-3.852c-0.024-21.058-0.017-42.115-0.017-63.173
		c0-0.827-0.022-1.655-0.011-2.481c0.022-1.573-0.608-2.702-2.011-3.495c-6.349-3.588-12.594-7.357-18.927-10.973
		c-1.829-1.043-2.05-0.893-2.053,1.358c-0.013,10.304,0.206,20.612-0.078,30.907c-0.199,7.214-0.347,14.424-0.413,21.638
		C40.938,346.453,41.21,347.591,39.912,347.984z"/>
	<path fill-rule="evenodd" clip-rule="evenodd" fill="#3C76C2" d="M39.912,347.984c0.574-0.555,0.351-1.271,0.362-1.925
		c0.321-18.116,0.557-36.233,0.439-54.354c-0.004-0.662,0-1.324,0-2.359c3.832,2.164,7.396,4.148,10.933,6.184
		c3.681,2.117,7.281,4.382,11.021,6.385c1.74,0.933,2.5,2.021,2.494,4.036c-0.057,22.346-0.04,44.692-0.019,67.039
		c0.001,0.86-0.352,1.815,0.392,2.579c4.162,1.774,7.933,4.268,11.836,6.507c12.203,7.001,24.397,14.018,36.589,21.037
		c4.173,2.403,8.337,4.819,12.526,7.192c0.854,0.483,1.694,1.011,1.964,2.071c0.405,5.173,0.089,10.352,0.187,15.526
		c0.075,3.975-0.155,7.954,0.148,11.927c-0.877,0.983-1.691,0.224-2.406-0.186c-13.111-7.49-26.205-15.012-39.303-22.525
		c-15.167-8.699-30.333-17.401-45.51-26.083c-0.997-0.57-1.863-0.988-1.851-2.446C39.825,375.055,39.857,361.519,39.912,347.984z"/>
	<path fill-rule="evenodd" clip-rule="evenodd" fill="#2E3B69" d="M128.786,439.829c-0.959-0.165-0.958-0.708-0.951-1.606
		c0.062-8.838,0.021-17.676,0.009-26.514c0.045-0.899,0.755-1.253,1.391-1.629c8.533-5.059,17.159-9.96,25.744-14.93
		c10.864-6.29,21.552-12.87,32.313-19.331c1.813-1.09,1.92-2.672,1.918-4.457c-0.013-17.67-0.009-35.339-0.007-53.009
		c0-4.06-0.028-8.12,0.019-12.18c0.012-1.094-0.17-2.316,1.077-2.99c7.396-4.261,14.786-8.533,22.193-12.774
		c2.25-1.288,2.281-1.247,2.282,1.335c0.015,31.607,0.024,63.215,0.058,94.823c0.001,0.784-0.338,1.647,0.292,2.366
		c0.163,1.211-0.657,1.682-1.547,2.192c-10.805,6.195-21.595,12.419-32.396,18.623C163.718,419.78,146.25,429.803,128.786,439.829z"
		/>
	<path fill-rule="evenodd" clip-rule="evenodd" fill="#FDFDFD" d="M190.298,303.184c-0.72,0.822-0.568,1.818-0.568,2.789
		c0.002,22.134-0.021,44.268,0.042,66.402c0.005,1.943-0.504,3.096-2.255,4.149c-19.601,11.798-39.283,23.454-59.181,34.745
		c-0.187,0.105-0.329,0.29-0.492,0.438c-8.411-4.83-16.819-9.663-25.23-14.491c-11.778-6.761-23.557-13.519-35.336-20.275
		c-0.649-0.372-1.352-0.673-1.743-1.373c0.032-3.986,0.091-7.972,0.093-11.958c0.01-19.188,0.089-38.376-0.089-57.563
		c-0.026-2.77,0.925-3.88,3.178-5.128c11.911-6.596,23.697-13.415,35.53-20.15c7.342-4.18,14.697-8.337,22.028-12.537
		c0.936-0.536,1.616-0.59,2.642-0.006c15.521,8.854,31.087,17.628,46.629,26.445C180.483,297.473,185.382,300.344,190.298,303.184z"
		/>
	<path fill-rule="evenodd" clip-rule="evenodd" fill="#52AFE6" d="M152.447,286.954c0.571,1.839,0.159,3.722,0.237,5.583
		c0.053,1.262,0.085,2.291,1.651,1.044c0.057-0.046,0.145-0.056,0.198-0.104c3.461-3.144,6.68-2.342,10.329,0.033
		c5.757,3.75,11.803,7.057,17.761,10.492c1.282,0.738,1.719,1.711,1.713,3.129c-0.036,7.896,0.012,15.793-0.058,23.688
		c-0.009,1.077,0.445,2.47-1.011,3.152c-0.587-0.809-0.373-1.739-0.374-2.626c-0.003-7.452,0.002-14.904-0.015-22.355
		c-0.001-0.721,0.23-1.494-0.328-2.271c-4.063,2.103-7.997,4.413-11.952,6.688c-3.387,1.947-6.689,4.048-10.226,5.728
		c-1.088,0.208-2.06-0.086-2.999-0.642c-6.766-4.002-13.527-8.013-20.349-11.92c-1.006-0.576-2.014-1.192-1.263-2.632
		c3.807-2.801,7.988-5.014,12.138-7.207c2.895-1.531,4.443-3.283,3.877-6.624c-0.146-0.864-0.108-1.796,0.194-2.669
		C152.069,287.219,152.228,287.057,152.447,286.954z"/>
	<path fill-rule="evenodd" clip-rule="evenodd" fill="#52AFE6" d="M72.347,332.176c-0.033-8.877-0.064-17.756-0.101-26.635
		c-0.004-0.874,0.195-1.541,1.063-2.045c7.379-4.285,14.736-8.611,22.083-12.951c0.806-0.476,1.527-0.559,2.304-0.035
		c0.063,0.041,0.117,0.096,0.183,0.131c1.573,0.861,3.405,2.68,4.657,2.343c1.653-0.444-0.028-3.108,0.952-4.591
		c0.815,0.683,0.697,1.654,0.607,2.505c-0.204,1.907,0.636,3.038,2.233,3.968c4.333,2.519,8.712,4.959,12.999,7.559
		c1.833,1.11,1.832,1.342,0.378,2.982c-4.114,3.078-8.833,5.131-13.204,7.778c-2.443,1.48-4.872,2.989-7.397,4.331
		c-0.865,0.461-1.7,0.976-2.713,1.049c-2.074-0.352-3.62-1.76-5.365-2.743c-5.741-3.235-11.387-6.638-17.217-9.753
		c-0.626,0.816-0.345,1.665-0.348,2.447c-0.026,6.979,0.017,13.959-0.049,20.938C73.402,330.412,73.945,331.766,72.347,332.176z"/>
	<path fill-rule="evenodd" clip-rule="evenodd" fill="#52AFE6" d="M103.518,287.896c-0.242-1.241,0.604-1.679,1.498-2.19
		c7.331-4.203,14.648-8.428,21.949-12.683c0.649-0.378,1.171-0.57,1.859-0.172c7.705,4.465,15.417,8.917,23.118,13.39
		c0.229,0.134,0.339,0.471,0.505,0.714l-0.142,0.126c-2.996,2.667-6.615,4.353-10.071,6.266c-4.772,2.645-9.324,5.676-14.242,8.059
		c-0.547,0.073-1.031-0.11-1.495-0.373C118.825,296.674,111.239,292.167,103.518,287.896z"/>
	<path fill-rule="evenodd" clip-rule="evenodd" fill="#3C76C2" d="M129.286,403.687c-0.806,0.431-1.419-0.059-2.061-0.428
		c-7.174-4.123-14.348-8.247-21.528-12.36c-0.915-0.524-1.426-1.159-1.364-2.323c0.104-1.944,0.041-3.899,0.022-5.85
		c-0.006-0.636,0.234-1.407-0.695-1.671c0.249-6.297-0.202-12.605,0.316-18.896c0.994-1.717,2.148-0.502,3.035,0.001
		c3.513,1.993,6.946,4.128,10.468,6.106c3.391,1.906,6.707,3.937,10.071,5.887c0.702,0.407,1.52,0.698,1.785,1.606
		c0.454,2.543,0.201,5.104,0.22,7.655c0.042,5.789,0.009,11.58,0.016,17.37C129.572,401.763,129.614,402.742,129.286,403.687z"/>
	<path fill-rule="evenodd" clip-rule="evenodd" fill="#2E3B69" d="M129.286,403.687c-0.458-0.382-0.46-0.897-0.459-1.437
		c0.029-9.011,0.05-18.023,0.073-27.035c0.246-0.703,0.866-1.003,1.449-1.341c6.491-3.769,13.049-7.42,19.488-11.277
		c0.649-0.389,1.326-0.704,2.077-0.854c1.76-0.628,1.918,0.63,1.974,1.781c0.146,2.999,0.045,6.003,0.058,9.004
		c0.01,2.401,0.004,4.804,0,7.205c-0.001,1.059-0.026,2.107-0.678,3.02c-0.011,1.876-0.11,3.757-0.001,5.626
		c0.066,1.147-0.397,1.858-1.286,2.366C144.422,395.068,136.853,399.375,129.286,403.687z"/>
	<path fill-rule="evenodd" clip-rule="evenodd" fill="#3C76C2" d="M97.551,384.695c-0.667,0.811-1.267,0.332-1.931-0.051
		c-7.609-4.385-15.228-8.753-22.844-13.126c-0.395-1.557-0.161-3.141-0.167-4.709c-0.03-7.529-0.023-15.059-0.007-22.588
		c0.004-1.922,0.243-2.066,1.874-1.113c6.757,3.951,13.495,7.935,20.313,11.782c0.906,0.512,1.864,1.016,2.369,2.026
		c0.402,1.083,0.315,2.213,0.321,3.33C97.52,368.396,97.407,376.547,97.551,384.695z"/>
	<path fill-rule="evenodd" clip-rule="evenodd" fill="#3C76C2" d="M72.347,332.176c0.735-0.673,0.403-1.558,0.406-2.342
		c0.027-7.446,0.016-14.893,0.016-22.338c0-0.813,0-1.624,0-2.785c2.794,1.558,5.313,2.945,7.817,4.359
		c5.382,3.039,10.756,6.09,16.134,9.137c0.987,0.973,0.736,2.236,0.742,3.406c0.031,6.832,0.008,13.665,0.02,20.498
		c0.002,1.194-0.084,2.407,0.443,3.535c0.643,1.009,0.037,1.354-0.838,1.468c-1.021,0.133-1.906-0.322-2.754-0.81
		c-3.766-2.163-7.392-4.566-11.313-6.462c-1.208-0.584-2.311-1.388-3.03-2.591c-2.158-1.197-4.333-2.365-6.462-3.612
		C72.998,333.329,72.222,333.076,72.347,332.176z"/>
	<path fill-rule="evenodd" clip-rule="evenodd" fill="#2E3B69" d="M160.062,318.733c7.742-4.442,15.485-8.884,23.211-13.315
		c0.545,0.642,0.359,1.266,0.36,1.838c0.013,8.182,0.006,16.362,0.01,24.543c0.001,0.751,0.051,1.502-0.378,2.174
		c-2.371,1.392-4.743,2.783-7.115,4.176c-0.563,0.938-1.484,1.462-2.379,1.991c-3.916,2.316-7.876,4.557-11.825,6.816
		c-0.59,0.338-1.192,0.631-1.912,0.473c-1.212-0.544-1.15-1.678-1.158-2.694c-0.059-7.772-0.056-15.545-0.003-23.317
		C158.878,320.385,158.865,319.271,160.062,318.733z"/>
	<path fill-rule="evenodd" clip-rule="evenodd" fill="#2E3B69" d="M183.616,372.215c-7.249,4.167-14.497,8.336-21.749,12.498
		c-0.32,0.185-0.67,0.316-1.006,0.473c-0.868,0.525-1.549,0.529-1.831-0.639c-0.125-0.516-0.161-1.04-0.162-1.566
		c-0.021-7.525-0.01-15.051-0.009-22.576c0-1.497,0.354-2.826,1.479-3.877c4.138-3.006,8.749-5.23,13.109-7.874
		c2.503-1.518,5.029-3.006,7.598-4.41c2.154-1.178,2.902-0.752,2.91,1.648c0.027,8.037,0.009,16.075,0.014,24.112
		C183.969,370.764,183.872,371.499,183.616,372.215z"/>
	<path fill-rule="evenodd" clip-rule="evenodd" fill="#52AFE6" d="M79.99,337.252c4.882,2.858,9.753,5.738,14.658,8.557
		c1.027,0.591,2.122,1.569,3.381,0.347c1.707-1.688,3.419-3.365,6.063-3.379c0.871,0.444,0.979,1.281,0.991,2.1
		c0.033,2.228,0.201,4.461-0.133,6.681c-1.971,2.892-4.946,4.188-8.16,5.102c-3.795-2.084-7.629-4.1-11.375-6.27
		c-4.132-2.394-8.183-4.927-12.637-7.623c0,9.749,0,19.251-0.001,28.753c-0.825-0.518-0.515-1.353-0.517-2.053
		c-0.023-8.284,0.032-16.568-0.055-24.852c-0.018-1.688,0.684-2.538,2.021-3.368C76.208,340.016,78.703,339.487,79.99,337.252z"/>
	<path fill-rule="evenodd" clip-rule="evenodd" fill="#51AFE6" d="M183.616,372.215c0.008-8.804,0.003-17.606,0.037-26.41
		c0.006-1.608-0.146-2.283-1.967-1.204c-6.886,4.083-13.858,8.021-20.798,12.011c-1.081,1.274-2.269,1.116-3.566,0.335
		c-1.533-0.923-2.995-1.958-4.568-2.818c-0.669-0.366-1.184-0.93-0.985-1.822c1.43-2.234,0.463-4.841,1.113-7.196
		c0.555-1.053,1.388-0.915,2.258-0.498c1.327,0.636,2.65,1.287,3.849,2.148c0.587,0.422,1.102,1.043,1.849,0.275
		c5.105-2.963,10.21-5.925,15.313-8.888c1.484,2.13,4.068,2.611,6.069,3.972c1.448,0.985,2.168,1.9,2.142,3.747
		c-0.111,7.882-0.042,15.767-0.055,23.65C184.306,370.461,184.533,371.492,183.616,372.215z"/>
	<path fill-rule="evenodd" clip-rule="evenodd" fill="#2E3B69" d="M96.79,356.658c2.538-1.54,5.075-3.081,7.613-4.621
		c2.273-0.465,3.703,1.299,5.442,2.163c0.971,0.482,2.396,0.729,2.527,2.259c-1.831,2.371-4.723,3.144-7.103,4.689
		c-0.233,0.15-0.54,0.215-0.764,0.414c-0.03,5.608-0.066,11.218-0.083,16.827c-0.003,0.972,0.087,1.947-0.763,2.665
		c-1.874,1.482-4.067,2.433-6.107,3.64c-1.133-0.377-0.758-1.342-0.759-2.1C96.775,373.95,96.787,365.304,96.79,356.658z"/>
	<path fill-rule="evenodd" clip-rule="evenodd" fill="#3B75C1" d="M151.907,352.592c2.052,1.922,4.583,3.1,6.97,4.504
		c0.891,0.523,1.263-0.669,2.011-0.484c-1.063,1.076-1.337,2.35-1.323,3.862c0.071,7.711,0.03,15.423,0.035,23.135
		c0,0.845-0.288,1.959,1.263,1.576c-0.636,0.933-1.251,0.782-2.227,0.313c-1.812-0.873-3.283-2.42-5.366-2.744
		c0-6.861,0-13.722,0-20.563c-0.772-0.604-1.208,0.539-1.853,0.237c-0.147-0.76,0.342-1.061,0.627-1.201
		c-2.237-1.507-5.213-2.229-7.094-4.707C146.869,354.502,148.895,352.674,151.907,352.592z"/>
	<path fill-rule="evenodd" clip-rule="evenodd" fill="#3B75C1" d="M103.518,287.896c2.253,0.048,3.914,1.487,5.73,2.507
		c6.263,3.52,12.485,7.113,18.723,10.68c0.817,0.866,0.665,1.973,0.582,2.975c-0.167,2.023,0.157,3.814,1.742,5.223
		c0.014,0.161-0.01,0.383-0.103,0.393c-3.319,0.361-5.925,2.245-8.599,3.991c-0.453,0.296-0.952,0.457-1.427,0.001
		c0.404-1.996,0.395-4.019,0.409-6.045c0.008-1.07-0.247-1.92-1.194-2.484c0.966-0.902,1.188-1.447-0.307-2.269
		c-4.709-2.589-9.263-5.462-13.958-8.077c-1.253-0.697-1.674-1.44-1.553-2.797c0.105-1.189-0.039-2.4-0.074-3.602
		C103.498,288.227,103.508,288.061,103.518,287.896z"/>
	<path fill-rule="evenodd" clip-rule="evenodd" fill="#3B75C1" d="M160.837,347.035c-0.634,1.038-1.406,0.478-2.094,0.128
		c-1.24-0.631-2.448-1.324-3.659-2.013c-0.58-0.329-1.125-0.757-1.814-0.262c-0.916-0.898-0.716-2.071-0.724-3.163
		c-0.033-4.694-0.01-9.389-0.016-14.084c-0.001-1.116,0.037-2.239-0.33-3.314c-0.334-1.141-1.109-1.836-2.13-2.446
		c-4.992-2.986-10.052-5.854-15.104-8.736c-0.614-0.35-1.481-0.547-1.209-1.592c0.519-1.772,0.135-3.604,0.37-5.388
		c0.143-1.079,0.181-2.407,1.935-1.951c-0.442,0.804,0.024,1.271,0.645,1.63c3.931,2.275,7.871,4.532,11.802,6.805
		c3.026,1.75,6.073,3.469,9.048,5.302c0.811,0.499,1.589,0.774,2.504,0.783c-0.449,0.659-0.467,1.403-0.467,2.166
		c0.001,8.132-0.011,16.264-0.01,24.396C159.584,346.157,159.301,347.263,160.837,347.035z"/>
	<path fill-rule="evenodd" clip-rule="evenodd" fill="#2D3A68" d="M136.063,304.214c-1.225,0.12-1.302,0.99-1.291,1.943
		c0.016,1.411,0.008,2.822,0.003,4.233c-0.002,0.664,0.1,1.404-0.907,1.441c-1.52-0.246-2.879-0.752-3.63-2.243
		c-3.042-1.038-2.275-3.593-2.309-5.821c-0.014-0.895,0.025-1.791,0.042-2.686c6.234-3.635,12.437-7.324,18.722-10.869
		c1.863-1.051,3.475-2.57,5.611-3.133c0.019,1.425-0.179,2.894,0.103,4.264c0.584,2.85-1.02,4.141-3.168,5.332
		C144.814,299.129,140.451,301.694,136.063,304.214z"/>
	<path fill-rule="evenodd" clip-rule="evenodd" fill="#2D3A68" d="M119.381,305.135c1.174-0.428,2.047-0.434,1.788,1.232
		c-0.377,2.426,0.893,5.063-0.94,7.301c-1.647,2.179-4.284,2.869-6.452,4.262c-2.377,1.528-4.828,2.944-7.391,4.159
		c-1.166,0.527-1.267,1.513-1.266,2.638c0.004,4.968,0.025,9.935-0.006,14.901c-0.009,1.375-0.018,2.766-1.586,3.425
		c-1.833,1.034-3.666,2.068-5.499,3.103c-1.789,0.255-1.236-1.106-1.239-1.923c-0.03-7.929-0.011-15.857-0.012-23.785
		c0-0.746-0.036-1.493-0.057-2.24C104.274,313.85,111.828,309.492,119.381,305.135z"/>
	<path fill-rule="evenodd" clip-rule="evenodd" fill="#52AFE6" d="M145.084,356.597c2.468,1.454,4.937,2.907,7.468,4.398
		c-0.409,0.516-0.772,0.975-1.136,1.433c-7.098,4.083-14.194,8.168-21.297,12.244c-0.384,0.221-0.813,0.363-1.221,0.542
		c-2.348-0.59-4.202-2.124-6.248-3.288c-6.055-3.443-12.099-6.907-18.147-10.363c1.494-2.003,3.973-2.545,5.867-3.957
		c0.526-0.393,1.111-0.705,1.669-1.055c1.056-0.67,1.856,0.052,2.698,0.505c4.239,2.285,8.344,4.801,12.506,7.215
		c0.684,0.396,1.388,1.014,2.281,0.427c4.077-2.406,8.117-4.873,12.286-7.112C142.813,357.048,143.735,356.054,145.084,356.597z"/>
	<path fill-rule="evenodd" clip-rule="evenodd" fill="#3C76C2" d="M129.758,365.247c-2.229,0.992-3.523-0.942-5.053-1.788
		c-4.208-2.327-8.151-5.134-12.664-6.907c-2.157-2.163-4.917-3.306-7.638-4.515c0.009-2.407,0.026-4.813,0.021-7.221
		c-0.001-0.725,0.19-1.578-0.897-1.764c0.727-0.838,0.921-1.796,0.91-2.908c-0.051-5.195,0.045-10.393-0.061-15.586
		c-0.036-1.801,0.472-2.894,2.313-3.176c-0.792,1.656,0.018,2.449,1.459,3.213c5.848,3.1,11.472,6.602,17.256,9.82
		c1.566,0.872,3.192,1.725,3.967,3.522c0.398,5.115,0.091,10.234,0.186,15.349C129.631,357.273,129.392,361.266,129.758,365.247z"/>
	<path fill-rule="evenodd" clip-rule="evenodd" fill="#2E3B69" d="M129.758,365.247c-1.347-0.293-0.908-1.382-0.913-2.194
		c-0.059-8.637-0.083-17.273-0.117-25.909c-0.009-0.95,0.767-1.211,1.406-1.569c6.806-3.819,13.53-7.781,20.311-11.643
		c0.572-0.326,1.135-0.804,1.862-0.347c1.35,0.28,0.919,1.375,0.924,2.183c0.038,6.374,0.032,12.747,0.04,19.121
		c-0.011,1.622-0.034,3.244-0.03,4.866c0.002,1.163-0.292,2.171-1.334,2.836c-2.489,0.969-4.65,2.497-6.822,4.006
		C139.763,359.104,134.824,362.286,129.758,365.247z"/>
	<path fill-rule="evenodd" clip-rule="evenodd" fill="#52AFE6" d="M152.307,323.585c-6.786,3.872-13.574,7.74-20.356,11.619
		c-1.087,0.622-2.148,1.292-3.222,1.94c-2.469-1.5-5.095-2.788-7.478-4.36c-4.491-2.964-9.387-5.179-13.904-8.07
		c-2.46-1.575-2.531-1.464-0.657-3.331c4.513-2.57,9.025-5.143,13.539-7.715c2.149-1.221,4.321-2.402,6.438-3.677
		c1.163-0.7,2.323-0.786,3.572-0.402c1.21,0.749,2.419,1.496,3.629,2.244c5.658,3.253,11.324,6.491,16.963,9.776
		C151.552,322.029,152.557,322.377,152.307,323.585z"/>
</g>
<g id="Capa_2">
	<g>
		<path fill-rule="evenodd" clip-rule="evenodd" fill="#333333" d="M399.96,286.114c4.06,2.268,8.11,4.551,12.184,6.794
			c1.128,0.621,1.632,1.485,1.631,2.779c-0.017,19.494-0.018,38.988,0,58.482c0.002,1.292-0.495,2.156-1.61,2.796
			c-6.667,3.829-13.321,7.682-19.973,11.539c-1.037,0.602-2.004,0.592-3.042-0.011c-6.698-3.889-13.405-7.76-20.116-11.626
			c-0.979-0.564-1.449-1.364-1.448-2.501c0.013-7.793,0.011-15.585,0.002-23.376c-0.001-1.104,0.46-1.892,1.41-2.438
			c6.747-3.887,13.493-7.775,20.231-11.678c0.98-0.567,1.913-0.581,2.889-0.008c1.567,0.921,3.17,1.78,4.713,2.74
			c0.8,0.497,1.567,0.072,1.564-0.891c-0.028-10.314-0.013-20.63-0.028-30.944c-0.001-0.765,0.218-1.325,0.92-1.658
			C399.513,286.114,399.737,286.114,399.96,286.114z"/>
		<path fill-rule="evenodd" clip-rule="evenodd" fill="#333333" d="M254.956,329.759c0.236-0.983,0.895-1.574,1.751-2.063
			c6.64-3.797,13.268-7.615,19.893-11.438c0.979-0.565,1.911-0.571,2.892-0.006c6.746,3.892,13.495,7.772,20.245,11.652
			c0.934,0.537,1.395,1.319,1.394,2.405c-0.015,10.523-0.02,21.048-0.03,31.571c-0.001,1.237-0.959,1.792-2.025,1.182
			c-3.966-2.271-7.93-4.548-11.899-6.813c-0.966-0.552-1.435-1.362-1.434-2.474c0.005-4.792-0.012-9.585,0.012-14.377
			c0.006-1.204-0.459-2.056-1.507-2.641c-1.622-0.907-3.228-1.846-4.837-2.778c-0.922-0.534-1.829-0.515-2.745,0.017
			c-1.645,0.954-3.293,1.901-4.944,2.847c-0.921,0.527-1.375,1.314-1.374,2.376c0.003,4.821-0.011,9.642,0.01,14.462
			c0.005,1.206-0.486,2.043-1.525,2.634c-3.951,2.245-7.89,4.511-11.836,6.766c-0.931,0.531-1.797,0.155-1.968-0.844
			c-0.054-0.164-0.026-0.333-0.026-0.5c-0.002-7.271-0.001-14.54-0.004-21.811c0-0.165,0.043-0.336-0.041-0.495
			C254.956,336.206,254.956,332.982,254.956,329.759z"/>
		<path fill-rule="evenodd" clip-rule="evenodd" fill="#689E63" d="M360.288,417.806c-2.191-0.976-4.142-2.375-6.228-3.537
			c-0.525-0.293-1.037-0.61-1.548-0.928c-0.139-0.086-0.31-0.185-0.295-0.379c0.016-0.206,0.215-0.239,0.369-0.291
			c0.986-0.329,1.932-0.745,2.821-1.28c0.291-0.176,0.526-0.077,0.779,0.074c1.514,0.903,3.037,1.792,4.544,2.707
			c0.396,0.24,0.729,0.233,1.128,0.002c6.283-3.64,12.572-7.271,18.867-10.892c0.431-0.248,0.594-0.542,0.594-1.041
			c-0.015-7.259-0.015-14.519,0-21.778c0.001-0.506-0.186-0.788-0.61-1.032c-6.259-3.6-12.513-7.207-18.758-10.829
			c-0.473-0.274-0.839-0.27-1.312,0.004c-6.281,3.644-12.572,7.272-18.865,10.896c-0.359,0.206-0.501,0.464-0.5,0.879
			c0.009,7.315,0.008,14.631,0.001,21.946c-0.001,0.389,0.102,0.659,0.457,0.86c1.678,0.955,3.343,1.933,5.019,2.892
			c0.676,0.387,1.402,0.628,2.194,0.627c1.513-0.004,2.6-1.079,2.6-2.593c0.003-7.218,0.001-14.436,0.001-21.652
			c0-0.844,0.123-0.965,0.973-0.965c0.616-0.001,1.233-0.004,1.849,0.001c0.572,0.005,0.771,0.193,0.771,0.752
			c0.002,7.371,0.004,14.743-0.006,22.114c-0.001,0.784-0.109,1.563-0.355,2.315c-0.692,2.12-2.412,3.39-4.66,3.57
			c-1.936,0.156-3.687-0.353-5.343-1.276c-1.614-0.899-3.202-1.843-4.804-2.762c-1.48-0.85-2.208-2.129-2.208-3.831
			c0-7.344,0.001-14.688-0.001-22.03c-0.001-1.722,0.74-2.994,2.237-3.855c6.379-3.672,12.749-7.357,19.127-11.029
			c1.412-0.813,2.873-0.84,4.279-0.031c6.418,3.688,12.821,7.4,19.228,11.105c1.451,0.838,2.165,2.112,2.167,3.773
			c0.007,7.371,0.004,14.743-0.002,22.114c0,0.334-0.032,0.675-0.104,1.001c-0.27,1.232-0.982,2.14-2.071,2.768
			c-3.686,2.125-7.367,4.257-11.049,6.385c-2.617,1.512-5.237,3.02-7.849,4.539c-0.458,0.267-0.947,0.461-1.422,0.687
			C361.633,417.806,360.96,417.806,360.288,417.806z"/>
		<path fill-rule="evenodd" clip-rule="evenodd" fill="#747474" d="M254.956,339.43c0.115,0.117,0.071,0.265,0.071,0.4
			c0.009,7.357,0.017,14.715,0.023,22.072c0,0.11-0.016,0.222-0.024,0.333l-0.038,0.004l-0.033-0.02
			C254.956,354.623,254.956,347.026,254.956,339.43z"/>
		<path fill-rule="evenodd" clip-rule="evenodd" fill="#333333" d="M424.028,342.389c0-3.84,0.015-7.68-0.009-11.52
			c-0.008-1.248,0.486-2.105,1.579-2.731c6.668-3.825,13.326-7.673,19.976-11.532c1.05-0.609,2.023-0.629,3.078-0.014
			c6.677,3.895,13.365,7.772,20.052,11.651c0.917,0.531,1.381,1.305,1.374,2.373c-0.011,1.836-0.009,3.672-0.001,5.508
			c0.005,1.051-0.452,1.821-1.353,2.344c-4.038,2.345-8.074,4.692-12.113,7.033c-1.013,0.587-1.989,0.021-1.994-1.152
			c-0.008-1.836-0.016-3.672,0.005-5.507c0.007-0.647-0.249-1.078-0.807-1.396c-2.042-1.161-4.076-2.336-6.104-3.519
			c-0.54-0.314-1.035-0.311-1.576,0.006c-2.027,1.186-4.062,2.359-6.104,3.519c-0.562,0.319-0.81,0.761-0.807,1.4
			c0.011,2.326,0.015,4.652-0.002,6.979c-0.005,0.673,0.252,1.127,0.841,1.465c6.687,3.824,13.365,7.661,20.045,11.495
			c0.133,0.076,0.268,0.152,0.398,0.232c0.956,0.584,0.959,1.712-0.016,2.257c-4.076,2.276-8.157,4.542-12.24,6.806
			c-0.866,0.48-1.73,0.451-2.593-0.042c-6.738-3.845-13.478-7.688-20.221-11.524c-0.974-0.556-1.413-1.381-1.411-2.486
			C424.032,350.152,424.028,346.271,424.028,342.389z"/>
		<path fill-rule="evenodd" clip-rule="evenodd" fill="#679E5B" d="M334.821,316.285c0.358,0.062,0.688,0.198,1,0.379
			c6.702,3.87,13.404,7.74,20.105,11.611c0.289,0.167,0.586,0.327,0.76,0.634c-0.18,0.598-0.538,1.107-0.831,1.646
			c-1.562,2.866-3.127,5.729-4.695,8.593c-0.363,0.663-0.709,1.336-1.091,1.989c-0.274,0.469-0.491,0.473-0.785,0.006
			c-0.493-0.781-0.931-1.598-1.456-2.36c-0.133-0.192-0.255-0.396-0.446-0.554c-0.137,0.147-0.083,0.309-0.084,0.454
			c-0.003,7.314-0.002,14.629-0.004,21.944c0,0.253,0.035,0.502,0.052,0.754c-1.282,0.752-2.558,1.513-3.845,2.256
			c-1.626,0.938-3.259,1.862-4.889,2.792c-0.287,0.074-0.324-0.147-0.366-0.331c-0.056-0.247-0.029-0.502-0.029-0.754
			c-0.001-13.861-0.003-27.723,0.007-41.584c0-0.65-0.137-1.231-0.426-1.813c-0.851-1.707-1.767-3.376-2.744-5.014
			C334.936,316.737,334.754,316.553,334.821,316.285z"/>
		<path fill-rule="evenodd" clip-rule="evenodd" fill="#75AC62" d="M334.821,316.285c1.202,1.985,2.33,4.011,3.336,6.104
			c0.144,0.297,0.196,0.602,0.196,0.931c-0.004,14.146-0.004,28.294,0,42.44c0.001,0.246-0.103,0.554,0.26,0.669
			c-1.237,0.716-2.4,1.566-3.761,2.056c-0.096,0.034-0.188,0.052-0.286,0.028c-0.482-1.075-1.093-2.082-1.656-3.113
			c-1.188-2.176-2.382-4.349-3.577-6.521c-0.25-0.454-0.499-0.908-0.755-1.358c-0.132-0.231-0.269-0.466-0.192-0.754
			c-0.014-0.254-0.008-0.506-0.008-0.757c-0.001-11.849-0.001-23.698,0.001-35.547c0.001-0.378-0.027-0.754-0.032-1.132
			c1.549-0.905,3.103-1.804,4.647-2.717c0.511-0.302,1.048-0.439,1.636-0.392C334.695,316.229,334.757,316.264,334.821,316.285z"/>
		<path fill-rule="evenodd" clip-rule="evenodd" fill="#478B44" d="M347.347,361.381c-0.196-0.09-0.172-0.268-0.172-0.435
			c0-7.555,0-15.108,0.004-22.662c0-0.112-0.074-0.29,0.095-0.321c0.125-0.023,0.208,0.125,0.282,0.225
			c0.699,0.928,1.252,1.948,1.854,2.938c0.072,0.119,0.122,0.278,0.278,0.286c0.177,0.009,0.192-0.179,0.255-0.294
			c1.575-2.867,3.148-5.733,4.718-8.603c0.597-1.092,1.182-2.19,1.773-3.285c0.064-0.121,0.104-0.266,0.253-0.321
			c0.522,0.524,0.645,1.185,0.645,1.889c-0.003,5.828-0.003,11.655-0.005,17.483c0,1.877-0.022,3.755,0.005,5.631
			c0.018,1.184-0.458,2.021-1.491,2.602c-1.863,1.045-3.702,2.132-5.553,3.197C349.311,360.272,348.328,360.824,347.347,361.381z"/>
		<path fill-rule="evenodd" clip-rule="evenodd" fill="#689E63" d="M366.468,380.912c2.047,0.052,3.883,0.191,5.628,0.899
			c2.571,1.044,3.81,3.038,4.073,5.722c0.06,0.609-0.142,0.803-0.773,0.809c-0.658,0.005-1.317,0.002-1.975,0.001
			c-0.657-0.002-0.782-0.083-0.932-0.716c-0.413-1.744-1.494-2.757-3.26-3.064c-0.526-0.091-1.052-0.154-1.582-0.186
			c-1.375-0.081-2.744-0.057-4.084,0.307c-0.531,0.144-1.032,0.363-1.43,0.761c-0.652,0.652-0.755,1.449-0.535,2.295
			c0.123,0.473,0.538,0.702,0.962,0.872c0.915,0.365,1.882,0.524,2.847,0.686c2.302,0.383,4.637,0.564,6.901,1.174
			c0.771,0.208,1.52,0.473,2.225,0.857c1.539,0.839,2.283,2.167,2.396,3.886c0.234,3.585-1.796,5.591-4.642,6.538
			c-2.206,0.734-4.477,0.788-6.765,0.624c-1.727-0.123-3.416-0.428-4.978-1.222c-2.351-1.193-3.481-3.146-3.532-5.755
			c-0.009-0.48,0.198-0.692,0.686-0.698c0.742-0.009,1.484,0.001,2.227-0.004c0.41-0.003,0.663,0.165,0.726,0.591
			c0.039,0.262,0.098,0.522,0.165,0.779c0.332,1.271,1.134,2.098,2.386,2.479c1.618,0.492,3.281,0.526,4.95,0.468
			c0.923-0.033,1.846-0.107,2.735-0.383c0.987-0.306,1.831-0.779,2.125-1.879c0.354-1.316-0.021-2.104-1.282-2.604
			c-1.18-0.47-2.429-0.647-3.677-0.812c-2.009-0.263-4.042-0.363-6.004-0.926c-1.28-0.366-2.468-0.892-3.365-1.939
			c-1.448-1.688-1.633-5.728,1.119-7.746c1.35-0.99,2.887-1.444,4.514-1.666C365.095,380.952,365.879,380.934,366.468,380.912z"/>
		<path fill-rule="evenodd" clip-rule="evenodd" fill="#3E853D" d="M328.422,356.928c0.476,1.057,1.09,2.041,1.637,3.061
			c0.864,1.611,1.762,3.204,2.645,4.805c0.586,1.063,1.176,2.125,1.752,3.193c0.084,0.154,0.279,0.31,0.11,0.526
			c-0.565,0.055-1.072-0.113-1.554-0.393c-6.768-3.908-13.537-7.814-20.304-11.724c-0.29-0.167-0.568-0.355-0.751-0.65
			c-0.102-0.196,0.017-0.353,0.105-0.505c1.461-2.52,2.943-5.027,4.405-7.546c1.076-1.854,2.158-3.702,3.247-5.548
			c0.084-0.142,0.142-0.31,0.31-0.386c0.235,0.035,0.291,0.252,0.378,0.412c0.675,1.242,1.372,2.472,2.042,3.717
			c0.166,0.308,0.354,0.604,0.508,0.918c1.33,2.438,2.671,4.871,4.01,7.305c0.465,0.844,0.922,1.692,1.385,2.536
			C328.395,356.737,328.433,356.825,328.422,356.928z"/>
		<path fill-rule="evenodd" clip-rule="evenodd" fill="#73B856" d="M328.422,356.928c-0.479-0.675-0.822-1.428-1.221-2.146
			c-1.417-2.553-2.814-5.116-4.218-7.678c-0.046-0.084-0.069-0.181-0.103-0.271c-0.051-0.361-0.051-0.725-0.051-1.089
			c0.001-7.383,0-14.766,0.003-22.148c0-0.342,0.002-0.672-0.303-0.907c1.539-0.898,3.077-1.801,4.621-2.691
			c0.395-0.229,0.764-0.504,1.196-0.665c0.251,0.128,0.166,0.364,0.166,0.561c0.004,7.999,0.003,15.998,0.003,23.997
			c0,4.174,0.002,8.349-0.003,12.523C328.512,356.584,328.585,356.779,328.422,356.928z"/>
		<path fill-rule="evenodd" clip-rule="evenodd" fill="#579E4A" d="M320.027,341.784c-0.833,1.434-1.665,2.868-2.499,4.301
			c-1.057,1.818-2.115,3.637-3.176,5.454c-0.716,1.228-1.438,2.451-2.157,3.677c-0.099,0.168-0.211,0.331-0.238,0.53
			c-0.42-0.493-0.562-1.082-0.562-1.711c-0.003-7.786-0.004-15.571,0-23.357c0-0.975,0.357-1.771,1.243-2.269
			c0.216-0.092,0.268,0.093,0.334,0.216c0.973,1.781,1.957,3.556,2.929,5.338c1.012,1.855,2.037,3.704,3.052,5.558
			c0.337,0.614,0.667,1.231,1.013,1.839C320.038,341.486,320.146,341.623,320.027,341.784z"/>
		<path fill-rule="evenodd" clip-rule="evenodd" fill="#6BBE48" d="M320.027,341.784c-0.292-0.759-0.752-1.429-1.128-2.144
			c-0.661-1.26-1.375-2.49-2.062-3.736c-1.233-2.236-2.457-4.477-3.696-6.709c-0.15-0.271-0.182-0.625-0.504-0.786
			c1.059-0.703,2.187-1.29,3.282-1.931c2.159-1.261,4.325-2.511,6.489-3.763c0.035-0.02,0.081-0.02,0.121-0.028
			c0.358-0.036,0.444,0.146,0.443,0.478c-0.006,7.759-0.005,15.517-0.007,23.275c0,0.134,0.046,0.284-0.085,0.392
			c-0.691-1.096-1.25-2.266-1.902-3.385C320.658,342.895,320.414,342.299,320.027,341.784z"/>
		<path fill-rule="evenodd" clip-rule="evenodd" fill="#689E63" d="M451.486,342.265c0,0.7-0.012,1.401,0.005,2.101
			c0.007,0.317-0.104,0.523-0.382,0.682c-1.214,0.691-2.424,1.392-3.632,2.098c-0.281,0.164-0.527,0.179-0.819,0.006
			c-1.204-0.711-2.415-1.409-3.631-2.1c-0.275-0.156-0.395-0.351-0.393-0.671c0.012-1.414,0.012-2.829,0-4.243
			c-0.002-0.321,0.12-0.516,0.395-0.671c1.205-0.681,2.406-1.369,3.598-2.072c0.301-0.178,0.552-0.188,0.855-0.01
			c1.181,0.694,2.369,1.378,3.562,2.053c0.313,0.177,0.466,0.392,0.45,0.771C451.466,340.892,451.486,341.579,451.486,342.265z"/>
		<path fill-rule="evenodd" clip-rule="evenodd" fill="#689F63" d="M391.54,382.678c-2.07,0-3.75-1.665-3.754-3.722
			c-0.003-2.065,1.72-3.778,3.778-3.757c2.063,0.021,3.694,1.689,3.698,3.781C395.268,381.017,393.597,382.677,391.54,382.678z"/>
		<path fill-rule="evenodd" clip-rule="evenodd" fill="#FEFEFE" d="M398.327,342.694c0,1.274-0.012,2.551,0.007,3.825
			c0.006,0.446-0.163,0.72-0.551,0.94c-2.211,1.259-4.414,2.531-6.611,3.814c-0.384,0.224-0.705,0.218-1.089-0.007
			c-2.196-1.283-4.4-2.554-6.612-3.812c-0.389-0.221-0.551-0.497-0.549-0.941c0.012-2.55,0.011-5.101,0.001-7.65
			c-0.002-0.423,0.14-0.702,0.518-0.918c2.233-1.274,4.46-2.562,6.681-3.859c0.358-0.209,0.657-0.203,1.012,0.005
			c2.222,1.295,4.448,2.583,6.683,3.857c0.379,0.217,0.518,0.498,0.513,0.92c-0.015,1.274-0.006,2.55-0.006,3.825
			C398.325,342.694,398.326,342.694,398.327,342.694z"/>
		<path fill-rule="evenodd" clip-rule="evenodd" fill="#FEFEFE" d="M391.503,375.821c1.752-0.007,3.156,1.356,3.164,3.073
			c0.008,1.762-1.368,3.171-3.107,3.183c-1.776,0.012-3.186-1.417-3.169-3.213C388.406,377.19,389.8,375.828,391.503,375.821z"/>
		<path fill-rule="evenodd" clip-rule="evenodd" fill="#689F63" d="M392.402,378.965c0.823,0.482,0.407,1.392,0.748,2.014
			c-0.047,0.036-0.065,0.063-0.086,0.065c-0.751,0.052-0.751,0.051-0.863-0.675c-0.013-0.083-0.039-0.165-0.042-0.248
			c-0.039-0.877-0.284-0.736-1.016-0.747c-0.188-0.003-0.189,0.117-0.188,0.25c0.001,0.392-0.011,0.784,0.002,1.175
			c0.013,0.379-0.261,0.243-0.439,0.252c-0.174,0.009-0.398,0.091-0.395-0.25c0.013-1.231,0.009-2.463,0.001-3.694
			c-0.001-0.207,0.077-0.263,0.271-0.259c0.476,0.01,0.951-0.002,1.426,0.006c0.664,0.01,1.036,0.249,1.174,0.74
			C393.161,378.185,392.986,378.594,392.402,378.965z"/>
		<path fill-rule="evenodd" clip-rule="evenodd" fill="#FDFDFD" d="M390.938,378.107c0.015-0.663-0.083-0.578,0.546-0.582
			c0.539-0.005,0.745,0.161,0.733,0.571c-0.013,0.421-0.281,0.567-0.882,0.605C390.781,378.737,390.969,378.361,390.938,378.107z"/>
	</g>
</g>
<g id="Capa_3">
	<g>
		<path fill-rule="evenodd" clip-rule="evenodd" fill="#010400" d="M887.718,362.096c2.366,1.612,4.673,3.185,7.043,4.8
			c-0.915,0.85-1.762,1.603-2.567,2.4c-0.398,0.394-0.693,0.391-1.149,0.065c-1.976-1.409-4.002-2.749-5.963-4.177
			c-0.607-0.441-1.074-0.477-1.737-0.148c-2.1,1.037-4.376,1.495-6.679,1.745c-4.544,0.491-9.087,0.541-13.593-0.394
			c-5.043-1.045-9.437-3.258-12.84-7.222c-2.551-2.97-3.938-6.431-4.353-10.306c-0.372-3.479-0.118-6.903,1.089-10.198
			c1.941-5.298,5.734-8.828,10.838-11.03c3.458-1.492,7.109-2.096,10.851-2.24c4.156-0.161,8.267,0.114,12.261,1.364
			c5.41,1.693,9.639,4.881,12.271,9.979c1.713,3.319,2.214,6.905,2.061,10.599c-0.091,2.17-0.433,4.297-1.176,6.349
			c-1.059,2.923-2.785,5.369-5.185,7.342c-0.352,0.289-0.704,0.575-1.055,0.864C887.809,361.909,887.798,361.949,887.718,362.096z"
			/>
		<path fill-rule="evenodd" clip-rule="evenodd" fill="#010400" d="M824.162,325.403c3.39-0.077,6.751,0.164,10.016,1.153
			c2.396,0.727,4.574,1.833,6.222,3.797c1.579,1.882,2.278,4.077,2.343,6.506c0.011,0.435-0.036,0.709-0.591,0.694
			c-1.29-0.034-2.581-0.022-3.872-0.006c-0.42,0.006-0.615-0.112-0.611-0.572c0.005-0.685-0.133-1.359-0.316-2.017
			c-0.614-2.214-2-3.788-4.039-4.813c-1.58-0.794-3.263-1.231-5.006-1.438c-3.984-0.474-7.95-0.442-11.855,0.597
			c-1.933,0.515-3.589,1.461-4.531,3.331c-0.914,1.815-1.058,3.718-0.383,5.626c0.692,1.957,2.291,2.958,4.159,3.575
			c2.238,0.738,4.563,1.117,6.871,1.563c4.058,0.784,8.176,1.237,12.185,2.275c1.691,0.438,3.352,0.955,4.903,1.784
			c2.876,1.536,4.28,3.969,4.438,7.179c0.091,1.84-0.073,3.639-0.857,5.339c-0.943,2.046-2.488,3.508-4.445,4.562
			c-2.586,1.392-5.401,1.979-8.284,2.27c-4.438,0.446-8.867,0.371-13.269-0.423c-2.52-0.454-4.938-1.208-7.126-2.571
			c-3.789-2.357-5.195-5.953-5.271-10.233c-0.008-0.451,0.178-0.592,0.609-0.585c1.215,0.019,2.43-0.004,3.645,0.01
			c0.768,0.008,0.774,0.022,0.813,0.85c0.101,2.148,0.731,4.111,2.143,5.757c1.484,1.73,3.458,2.681,5.607,3.302
			c1.757,0.508,3.561,0.76,5.382,0.856c3.422,0.182,6.828,0.102,10.161-0.828c0.437-0.121,0.863-0.284,1.29-0.44
			c4.438-1.621,5.02-6.122,4.181-9.068c-0.595-2.089-2.146-3.261-4.118-3.901c-2.387-0.774-4.863-1.169-7.329-1.597
			c-4.108-0.715-8.25-1.256-12.3-2.285c-1.176-0.3-2.347-0.615-3.466-1.098c-2.828-1.221-4.611-3.308-5.071-6.372
			c-0.447-2.978-0.148-5.837,1.845-8.293c1.159-1.429,2.682-2.322,4.378-2.955c2.808-1.046,5.747-1.352,8.706-1.521
			C822.263,325.357,823.214,325.403,824.162,325.403z"/>
		<path fill-rule="evenodd" clip-rule="evenodd" fill="#010400" d="M539.547,360.568c-1.162,0.299-2.252,0.593-3.379,0.706
			c-2.259,0.226-4.472-0.005-6.632-0.683c-0.793-0.249-1.573-0.582-2.207-1.146c-0.335-0.299-0.605-0.311-0.984-0.075
			c-1.012,0.627-2.112,1.016-3.311,1.1c-2.074,0.146-3.879-0.531-5.486-1.799c-1.574-1.24-2.746-2.823-3.77-4.521
			c-1.849-3.068-3.177-6.371-4.316-9.753c-1.443-4.28-2.713-8.611-3.285-13.104c-0.432-3.382,0.018-6.683,1.568-9.744
			c1.978-3.906,5.352-5.959,9.525-6.865c3.84-0.835,7.69-0.68,11.543-0.13c1.803,0.257,3.586,0.626,5.343,1.102
			c0.441,0.119,0.797,0.068,1.194-0.106c2.429-1.072,4.987-1.54,7.629-1.593c1.938-0.04,3.869,0.034,5.794,0.268
			c0.412,0.05,0.825,0.103,1.242-0.007c3.717-0.974,7.526-1.074,11.305-0.806c5.292,0.376,10.139,2.062,14.203,5.677
			c1.986,1.767,2.892,3.927,2.927,6.524c0.033,2.41-0.374,4.759-0.998,7.073c-1.516,5.617-4.025,10.779-7.196,15.636
			c-0.242,0.371-0.482,0.745-0.832,1.284c0.993,0.024,1.795-0.079,2.6-0.189c1.013-0.139,2.013-0.38,3.049-0.334
			c0.734,0.031,1.427,0.209,2.071,0.544c1.648,0.857,2.124,2.7,1.095,4.252c-0.6,0.902-1.444,1.546-2.343,2.127
			c-2.307,1.49-4.853,2.299-7.562,2.61c-1.281,0.147-2.566,0.268-3.86,0.227c-0.83-0.027-0.863-0.009-0.917,0.861
			c-0.088,1.439-0.132,2.88-0.327,4.311c-0.258,1.885-0.642,3.735-1.371,5.502c-1.144,2.771-3.087,4.759-5.884,5.84
			c-2.426,0.938-4.946,1.465-7.565,1.291c-3.317-0.22-5.695-1.798-7.084-4.876c-0.984-2.184-1.408-4.472-1.548-6.834
			C539.692,363.504,539.626,362.067,539.547,360.568z"/>
		<path fill-rule="evenodd" clip-rule="evenodd" fill="#010400" d="M742.486,344.529c0-1.422,0.026-2.584-0.011-3.744
			c-0.02-0.593,0.172-0.807,0.773-0.776c0.871,0.044,1.746,0.04,2.617,0c0.573-0.025,0.75,0.215,0.689,0.738
			c-0.018,0.149-0.002,0.303-0.002,0.455c0,7.777-0.001,15.555,0,23.333c0,1.216-0.06,2.432-0.304,3.623
			c-0.727,3.548-2.846,5.945-6.148,7.35c-1.475,0.628-3.014,1.017-4.595,1.237c-4.593,0.642-9.156,0.513-13.664-0.624
			c-3.679-0.928-5.866-3.298-6.611-7.01c-0.037-0.185-0.091-0.369,0.052-0.629c1.125,0,2.298,0.011,3.47-0.007
			c0.358-0.006,0.578,0.108,0.661,0.461c0.026,0.11,0.054,0.222,0.084,0.331c0.702,2.543,2.349,4.084,4.918,4.66
			c3.757,0.84,7.532,0.937,11.284,0.084c4.365-0.992,6.72-3.999,6.78-8.466c0.021-1.51,0.004-3.021,0.004-4.483
			c-0.161-0.146-0.268-0.095-0.339-0.012c-1.927,2.199-4.389,3.448-7.212,4.027c-4.427,0.909-8.827,0.845-13.133-0.615
			c-5.314-1.802-7.751-5.963-8.024-10.883c-0.105-1.907-0.004-3.796,0.563-5.631c1.167-3.77,3.812-6.104,7.399-7.471
			c2.922-1.112,5.979-1.313,9.071-1.239c1.676,0.04,3.321,0.268,4.942,0.702c1.833,0.491,3.447,1.349,4.781,2.718
			C741.104,343.242,741.711,343.789,742.486,344.529z"/>
		<path fill-rule="evenodd" clip-rule="evenodd" fill="#010400" d="M592.981,346.169c0-6.07,0-12.142,0-18.213
			c0-0.189-0.001-0.379,0.001-0.568c0.01-0.982,0.011-0.989,0.997-0.994c7.513-0.035,15.024-0.068,22.538-0.103
			c2.374-0.011,4.691,0.291,6.872,1.299c3.229,1.493,5.168,4.01,5.839,7.49c0.348,1.804,0.353,3.623-0.059,5.422
			c-0.895,3.914-3.479,6.274-7.118,7.624c-1.792,0.666-3.661,0.99-5.571,0.999c-5.767,0.028-11.533,0.029-17.301,0.048
			c-1.797,0.006-1.501-0.17-1.502,1.505c-0.003,4.705,0.017,9.41,0.026,14.115c0.001,0.266-0.003,0.531,0,0.797
			c0.003,0.311-0.11,0.503-0.456,0.502c-1.253-0.003-2.505-0.007-3.757,0.004c-0.413,0.003-0.52-0.22-0.51-0.575
			c0.007-0.266,0-0.531,0-0.797C592.981,358.539,592.981,352.354,592.981,346.169z"/>
		<path fill-rule="evenodd" clip-rule="evenodd" fill="#010400" d="M800.554,357.636c-0.333,1.517-0.988,2.736-1.845,3.856
			c-1.572,2.055-3.638,3.437-6.073,4.224c-5.408,1.747-10.849,1.825-16.159-0.271c-5.747-2.27-8.781-7.155-8.341-13.718
			c0.271-4.03,1.948-7.277,5.298-9.6c1.609-1.115,3.39-1.862,5.299-2.267c4.373-0.928,8.742-0.975,13.054,0.312
			c5.317,1.587,8.669,5.688,9.263,11.196c0.082,0.753,0.469,1.686,0.052,2.212c-0.439,0.556-1.427,0.191-2.169,0.192
			c-8.426,0.017-16.851,0.011-25.275,0.011c-0.266,0-0.533,0.021-0.797-0.003c-0.46-0.042-0.576,0.168-0.559,0.599
			c0.097,2.317,0.833,4.377,2.399,6.115c1.331,1.477,2.968,2.487,4.856,3.045c3.463,1.021,6.961,1.084,10.437,0.083
			c2.781-0.801,4.816-2.528,5.922-5.232c0.249-0.608,0.551-0.794,1.174-0.768C798.218,357.67,799.352,357.636,800.554,357.636z"/>
		<path fill-rule="evenodd" clip-rule="evenodd" fill="#010400" d="M663.783,357.967c1.326,0,2.646,0.002,3.966-0.001
			c0.351-0.001,0.435,0.196,0.451,0.507c0.152,2.85,1.926,4.309,4.43,5.122c1.086,0.353,2.212,0.546,3.347,0.635
			c2.92,0.229,5.837,0.29,8.724-0.344c1.118-0.246,2.189-0.615,3.119-1.316c2.263-1.706,2.156-5.031-0.227-6.559
			c-0.672-0.43-1.405-0.736-2.215-0.842c-2.708-0.353-5.413-0.721-8.12-1.082c-2.405-0.32-4.814-0.614-7.184-1.152
			c-0.592-0.135-1.174-0.303-1.729-0.557c-3.85-1.761-4.874-6.787-2.022-9.94c0.86-0.95,1.91-1.596,3.124-2.001
			c1.812-0.605,3.679-0.945,5.572-1.079c3.222-0.228,6.447-0.27,9.638,0.379c1.757,0.358,3.437,0.922,4.914,1.989
			c1.851,1.338,2.731,3.187,2.927,5.418c0.047,0.537-0.125,0.751-0.692,0.729c-0.985-0.04-1.973-0.019-2.96-0.009
			c-0.359,0.004-0.545-0.102-0.573-0.506c-0.197-2.739-1.903-4.172-4.351-4.915c-2.738-0.83-5.543-0.771-8.352-0.528
			c-1.441,0.123-2.859,0.379-4.18,1.007c-1.381,0.657-2.338,1.654-2.559,3.24c-0.185,1.324,0.222,2.388,1.323,3.168
			c0.818,0.579,1.732,0.928,2.712,1.121c2.794,0.55,5.624,0.837,8.452,1.129c2.038,0.211,4.073,0.438,6.07,0.913
			c1.112,0.265,2.186,0.64,3.187,1.192c3.611,1.994,4.305,6.834,1.424,9.817c-1.199,1.241-2.704,1.931-4.317,2.416
			c-2.084,0.627-4.229,0.889-6.398,0.939c-3.379,0.078-6.755,0.078-10.078-0.677c-0.479-0.109-0.955-0.244-1.422-0.4
			C665.992,364.52,664.119,362.108,663.783,357.967z"/>
		<path fill-rule="evenodd" clip-rule="evenodd" fill="#010400" d="M644.688,366.955c-2.05-0.036-4.275-0.187-6.452-0.798
			c-6.213-1.742-9.963-6.827-9.786-13.275c0.09-3.239,0.882-6.23,3.057-8.728c1.989-2.284,4.542-3.666,7.455-4.325
			c4.521-1.023,9.043-0.955,13.5,0.373c3.202,0.955,5.806,2.769,7.531,5.693c1.375,2.328,1.783,4.898,1.744,7.554
			c-0.035,2.382-0.488,4.675-1.694,6.77c-1.703,2.958-4.347,4.681-7.524,5.693C650.032,366.704,647.47,366.929,644.688,366.955z"/>
		<path fill-rule="evenodd" clip-rule="evenodd" fill="#010400" d="M898.528,346.208c0-6.11,0-12.221,0-18.331
			c0-0.228-0.003-0.456,0.001-0.684c0.018-0.855,0.019-0.859,0.886-0.874c1.063-0.019,2.126-0.003,3.187-0.055
			c0.566-0.027,0.751,0.185,0.691,0.72c-0.03,0.262-0.005,0.53-0.005,0.796c0,11.233-0.002,22.468,0.002,33.702
			c0.001,1.455-0.156,1.254,1.279,1.255c9.032,0.006,18.065,0,27.098,0.006c1.409,0.001,1.251-0.189,1.235,1.291
			c-0.008,0.667,0.268,1.51-0.215,1.956c-0.429,0.397-1.234,0.125-1.871,0.125c-10.209,0.009-20.419,0.006-30.628,0.006
			c-0.228,0-0.455,0.003-0.683,0c-0.967-0.012-0.976-0.012-0.976-1.013C898.527,358.808,898.528,352.508,898.528,346.208z"/>
		<path fill-rule="evenodd" clip-rule="evenodd" fill="#010400" d="M711.101,363.564c0.036,0.074,0.098,0.141,0.098,0.207
			c-0.001,2.737,0.62,2.383-2.236,2.641c-1.743,0.156-3.485,0.024-5.186-0.454c-2.362-0.666-3.488-2.05-3.637-4.488
			c-0.029-0.491-0.02-0.985-0.02-1.479c-0.001-5.312-0.001-10.623-0.001-15.935c0-0.266-0.019-0.532,0.004-0.796
			c0.039-0.456-0.175-0.586-0.601-0.58c-1.29,0.017-2.58,0.012-3.869,0.002c-0.781-0.005-0.781-0.016-0.799-0.816
			c-0.04-1.854-0.04-1.854,1.823-1.854c0.835,0,1.669,0.005,2.504-0.002c0.893-0.009,0.902-0.015,0.908-0.956
			c0.016-2.2,0.021-4.4,0.029-6.601c0.004-1.02-0.104-0.969,0.991-0.97c0.759,0,1.518-0.009,2.276,0.003
			c0.773,0.012,0.786,0.021,0.789,0.841c0.007,2.238,0.001,4.477,0.003,6.715c0.001,1.06-0.105,0.966,0.983,0.968
			c1.783,0.003,3.566,0.017,5.35-0.008c0.52-0.008,0.724,0.121,0.742,0.69c0.066,2.028,0.091,2.026-1.892,2.016
			c-1.48-0.009-2.961,0.014-4.438-0.036c-0.617-0.021-0.76,0.2-0.756,0.775c0.022,3.187,0.011,6.373,0.01,9.561
			c0,2.2-0.001,4.4,0.002,6.602c0,0.417-0.004,0.835,0.023,1.251c0.104,1.544,0.773,2.382,2.293,2.688
			c1.226,0.247,2.473,0.371,3.729,0.128C710.511,363.622,710.793,363.449,711.101,363.564z"/>
		<path fill-rule="evenodd" clip-rule="evenodd" fill="#010400" d="M768.402,342.644c-1.391-0.206-2.749-0.279-4.112-0.227
			c-0.722,0.027-1.435,0.101-2.145,0.249c-3.319,0.69-5.451,2.673-6.439,5.896c-0.506,1.647-0.639,3.351-0.643,5.063
			c-0.007,3.759-0.002,7.517-0.003,11.275c-0.001,1.375,0.092,1.179-1.24,1.192c-0.569,0.006-1.139-0.001-1.709,0.001
			c-1.052,0.005-1.024,0.083-1.023-1.075c0.002-1.975-0.004-3.948-0.009-5.922c-0.013-5.998-0.026-11.996-0.04-17.994
			c0-0.189,0.004-0.38,0.004-0.569c0-0.317,0.14-0.496,0.475-0.489c1.024,0.021,2.05,0.051,3.074,0.054
			c0.437,0.001,0.475,0.251,0.472,0.59c-0.009,1.024-0.003,2.05-0.003,3.075c0,0.283,0,0.566,0,0.892
			c0.499-0.152,0.477-0.516,0.596-0.76c1.106-2.253,2.826-3.677,5.315-4.223c2.329-0.511,4.677-0.424,7.027-0.446
			c0.32-0.003,0.499,0.089,0.485,0.444C768.444,340.649,768.561,341.633,768.402,342.644z"/>
		<path fill-rule="evenodd" clip-rule="evenodd" fill="#FFFFFF" d="M870.588,328.49c3.251-0.003,6.46,0.347,9.444,1.7
			c6.291,2.852,9.978,7.582,10.344,14.655c0.119,2.292-0.024,4.55-0.633,6.76c-1.272,4.621-4.102,7.956-8.417,10.033
			c-4.262,2.05-8.781,2.521-13.426,2.122c-3.927-0.337-7.574-1.484-10.759-3.894c-4.103-3.103-6.19-7.255-6.475-12.361
			c-0.138-2.483,0.044-4.935,0.793-7.311c1.542-4.896,4.916-8.085,9.562-10.019C863.867,328.993,866.988,328.481,870.588,328.49z"/>
		<path fill-rule="evenodd" clip-rule="evenodd" fill="#FFFFFF" d="M565.934,350.808c1.452,0.643,2.861,0.601,4.258,0.49
			c1.321-0.105,2.636-0.305,3.949-0.497c0.543-0.079,1.067-0.044,1.571,0.129c0.897,0.308,1.17,1.079,0.688,1.905
			c-0.393,0.673-1.008,1.123-1.641,1.549c-2.125,1.432-4.492,2.156-7.022,2.42c-1.627,0.17-3.257,0.305-4.876,0.001
			c-0.618-0.115-0.751,0.089-0.83,0.664c-0.446,3.269-0.882,6.539-1.517,9.778c-0.116,0.594-0.257,1.188-0.437,1.765
			c-0.655,2.102-1.938,3.694-3.971,4.578c-2.648,1.151-5.404,1.812-8.308,1.284c-3.072-0.557-5.388-2.906-5.965-5.979
			c-0.259-1.381-0.414-2.778-0.46-4.182c-0.072-2.161-0.114-4.324-0.171-6.485c-0.006-0.212-0.032-0.424-0.049-0.636
			c-0.144,0.022-0.227,0.013-0.279,0.047c-3.053,2.026-6.378,2.212-9.838,1.445c-0.778-0.173-1.536-0.436-2.195-0.902
			c-1.24-0.88-1.15-2.032,0.203-2.749c0.646-0.342,1.358-0.476,2.061-0.63c0.555-0.123,1.121-0.19,1.679-0.305
			c1.871-0.382,2.524-0.82,3.585-2.419c-1.257-0.164-2.49-0.314-3.617-0.846c-0.436-0.206-0.637,0.091-0.871,0.313
			c-1.514,1.437-3.019,2.882-4.525,4.325c-0.467,0.445-0.905,0.924-1.399,1.335c-2.323,1.932-4.909,1.911-7.229-0.054
			c-1.287-1.092-2.27-2.438-3.137-3.875c-1.872-3.102-3.183-6.451-4.325-9.872c-1.323-3.959-2.497-7.967-3.032-12.114
			c-0.41-3.171-0.107-6.311,1.398-9.2c1.843-3.537,4.967-5.298,8.764-6.023c3.979-0.761,7.933-0.384,11.872,0.329
			c1.344,0.244,2.682,0.524,3.985,0.932c0.55,0.172,1.005,0.093,1.517-0.152c2.185-1.051,4.507-1.546,6.926-1.608
			c2.052-0.054,4.097,0.008,6.115,0.43c0.346,0.072,0.668,0.009,1.006-0.074c4.092-1,8.231-1.32,12.42-0.8
			c4.64,0.577,8.792,2.214,12.184,5.558c1.119,1.103,1.674,2.402,1.806,3.932c0.243,2.805-0.265,5.517-1.034,8.19
			c-1.772,6.153-4.681,11.743-8.451,16.899C566.496,350.038,566.253,350.371,565.934,350.808z"/>
		<path fill-rule="evenodd" clip-rule="evenodd" fill="#FFFFFF" d="M729.712,362.942c-1.093-0.031-2.786-0.181-4.45-0.607
			c-4.521-1.16-7.016-4.145-7.334-8.814c-0.088-1.293-0.032-2.58,0.272-3.843c0.885-3.666,3.296-5.903,6.807-6.95
			c3.529-1.052,7.119-1.061,10.655,0.002c3.996,1.202,6.449,4.307,6.787,8.484c0.155,1.908-0.051,3.788-0.769,5.582
			c-1.162,2.902-3.457,4.521-6.307,5.47C733.741,362.81,732.045,362.979,729.712,362.942z"/>
		<path fill-rule="evenodd" clip-rule="evenodd" fill="#FFFFFF" d="M607.415,329.504c2.73,0,5.46-0.013,8.19,0.005
			c1.369,0.008,2.715,0.203,4.023,0.636c2.552,0.842,4.17,2.546,4.758,5.173c0.464,2.076,0.447,4.145-0.367,6.146
			c-0.763,1.873-2.211,3.033-4.057,3.741c-1.503,0.578-3.078,0.851-4.673,0.862c-5.612,0.041-11.225,0.02-16.837,0.05
			c-0.627,0.003-0.756-0.236-0.755-0.797c0.016-5.006,0.006-10.012,0.013-15.018c0.001-0.792,0.021-0.808,0.83-0.809
			c2.958-0.008,5.916-0.003,8.874-0.003C607.415,329.495,607.415,329.499,607.415,329.504z"/>
		<path fill-rule="evenodd" clip-rule="evenodd" fill="#FFFFFF" d="M772.293,351.406c0.783-4.415,2.922-7.543,7.174-8.89
			c3.338-1.057,6.72-1.104,10.075-0.045c2.509,0.792,4.497,2.323,5.998,4.475c0.796,1.14,1.24,2.419,1.386,3.805
			c0.05,0.48-0.104,0.711-0.612,0.658c-0.226-0.023-0.455-0.003-0.683-0.003c-7.36,0-14.72,0-22.08,0
			C773.176,351.406,772.801,351.406,772.293,351.406z"/>
		<path fill-rule="evenodd" clip-rule="evenodd" fill="#FFFFFF" d="M644.885,364.265c-1.542-0.032-3.209-0.139-4.817-0.636
			c-4.18-1.29-6.618-4.125-7.318-8.424c-0.251-1.54-0.236-3.11,0.065-4.647c0.908-4.634,3.87-7.268,8.353-8.235
			c3.004-0.648,6.043-0.526,9.022,0.264c4.072,1.079,6.53,3.683,7.207,7.875c0.336,2.078,0.313,4.163-0.189,6.216
			c-0.77,3.153-2.786,5.233-5.728,6.467C649.415,364.009,647.226,364.205,644.885,364.265z"/>
		<path fill-rule="evenodd" clip-rule="evenodd" fill="#336790" d="M529.363,331.345c0.651-4.853,2.175-9.222,6.536-12.044
			c2.015-1.304,4.282-1.944,6.671-2.038c5.701-0.225,10.892,1.24,15.38,4.859c2.272,1.833,4.088,4.056,5.403,6.672
			c0.115,0.228,0.294,0.446,0.24,0.855c-0.602,0-1.222,0-1.843-0.001c-1.181-0.001-2.347,0.079-3.479,0.464
			c-2.495,0.848-3.69,2.764-3.341,5.361c0.295,2.188,1.19,4.154,2.278,6.029c1.274,2.197,2.644,4.34,3.975,6.504
			c0.557,0.905,1.354,1.62,2.018,2.454c-0.219,0.306-0.546,0.307-0.804,0.424c-1.294,0.586-2.052,1.576-2.118,2.987
			c-0.099,2.09-0.44,4.146-0.729,6.21c-0.327,2.327-0.735,4.644-1.124,6.961c-0.081,0.484-0.216,0.963-0.356,1.435
			c-0.559,1.873-1.753,3.158-3.596,3.825c-1.579,0.571-3.195,0.95-4.887,0.946c-3.058-0.006-5.239-1.884-5.726-4.932
			c-0.378-2.368-0.48-4.756-0.5-7.147c-0.018-2.087-0.104-4.184,0.056-6.26c0.187-2.432-1.871-4.354-4.004-4.275
			c-0.148,0.005-0.299-0.021-0.528-0.037c0.233-1.154,0.784-2.144,1.25-3.159c0.333-0.724,0.735-1.415,1.072-2.136
			c1.069-2.292,1.396-4.702,1.155-7.211c-0.126-1.325-0.339-2.633-0.655-3.923c-0.661-2.697-2.41-4.104-5.193-4.23
			c-2.169-0.1-4.208,0.445-6.211,1.196C530.032,331.236,529.794,331.467,529.363,331.345z"/>
		<path fill-rule="evenodd" clip-rule="evenodd" fill="#336790" d="M530.478,350.126c-2.014,1.948-3.993,3.938-6.057,5.838
			c-1.306,1.202-2.623,1.181-4.008,0.08c-1.265-1.005-2.189-2.305-3.012-3.679c-1.782-2.98-3.021-6.2-4.121-9.476
			c-1.16-3.454-2.113-6.964-2.789-10.548c-0.456-2.424-0.408-4.847,0.193-7.228c1.017-4.02,3.736-6.271,7.682-7.223
			c2.586-0.625,5.191-0.638,7.804-0.331c2.261,0.265,4.499,0.674,6.682,1.299c0.128,0.306-0.11,0.431-0.266,0.575
			c-2.964,2.769-4.382,6.314-5.102,10.198c-0.298,1.608-0.369,3.236-0.269,4.876c0.15,2.466,0.116,4.928-0.23,7.383
			c-0.408,2.883,0.568,5.29,2.602,7.316C529.878,349.499,530.264,349.701,530.478,350.126z"/>
		<path fill-rule="evenodd" clip-rule="evenodd" fill="#336790" d="M553.172,317.005c4.017-0.609,7.938-0.656,11.807,0.403
			c2.892,0.792,5.467,2.177,7.666,4.266c1.045,0.993,1.46,2.163,1.525,3.539c0.128,2.692-0.433,5.283-1.211,7.825
			c-1.679,5.482-4.278,10.515-7.615,15.168c-0.197,0.274-0.392,0.883-0.739,0.675c-0.483-0.287,0.093-0.647,0.248-0.922
			c1.18-2.086,1.286-4.323,1.012-6.623c-0.12-1.016-0.26-2.029-0.377-3.045c-0.218-1.879,0.258-3.697,0.536-5.526
			c0.268-1.757,0.004-3.359-0.846-4.926c-2.591-4.779-6.406-8.199-11.349-10.402C553.626,317.346,553.398,317.304,553.172,317.005z"
			/>
		<path fill-rule="evenodd" clip-rule="evenodd" fill="#336790" d="M540.3,339.235c0.054,2.201-0.325,4.039-1.212,5.765
			c-0.798,1.551-1.61,3.096-2.168,4.755c-0.138,0.41-0.392,0.491-0.774,0.469c-3.627-0.215-7.016-3.131-7.137-6.84
			c-0.034-1.033,0.175-2.037,0.27-3.055c0.178-1.929,0.238-3.862,0.023-5.792c-0.068-0.619,0.133-0.969,0.703-1.24
			c2.01-0.96,4.08-1.641,6.341-1.561c1.821,0.064,2.786,0.839,3.242,2.601C540.027,336.031,540.315,337.748,540.3,339.235z"/>
		<path fill-rule="evenodd" clip-rule="evenodd" fill="#336790" d="M562.899,346.895c-1.89-3.22-4.257-6.198-5.46-9.835
			c-0.3-0.908-0.471-1.828-0.424-2.787c0.055-1.141,0.615-1.953,1.657-2.363c1.593-0.627,3.26-0.576,4.928-0.406
			c0.287,0.029,0.38,0.211,0.365,0.467c-0.023,0.377-0.006,0.768-0.099,1.129c-0.761,2.964-0.525,5.926-0.063,8.899
			c0.237,1.52,0.108,3.021-0.505,4.455C563.228,346.618,563.211,346.832,562.899,346.895z"/>
		<path fill-rule="evenodd" clip-rule="evenodd" fill="#346891" d="M530.501,356.927c0.578-0.428,1.25-0.354,1.848-0.52
			c0.618-0.171,1.254-0.272,1.879-0.416c1.176-0.271,2.173-0.845,2.987-1.742c0.405-0.448,0.827-0.885,1.271-1.294
			c0.771-0.713,1.579-0.676,2.271,0.072c0.687,0.742,0.683,1.431-0.026,2.18c-2.081,2.197-4.708,2.734-7.581,2.425
			C532.263,357.536,531.339,357.472,530.501,356.927z"/>
		<path fill-rule="evenodd" clip-rule="evenodd" fill="#356891" d="M573.69,352.724c-0.719,0.688-1.447,1.009-2.168,1.299
			c-2.581,1.041-5.271,1.357-8.031,1.048c-0.418-0.047-1.01,0.062-1.138-0.525c-0.123-0.567,0.023-1.142,0.391-1.611
			c0.437-0.559,1.511-0.853,2.164-0.557c1.83,0.83,3.749,0.856,5.693,0.687C571.569,352.979,572.534,352.853,573.69,352.724z"/>
		<path fill-rule="evenodd" clip-rule="evenodd" fill="#FAFBFC" d="M536.176,332.684c0.739,0.029,1.378,0.115,1.945,0.445
			c0.573,0.333,0.591,0.712,0.096,1.167c-0.843,0.774-2.394,0.66-3.174-0.234c-0.528-0.605-0.362-1.126,0.435-1.313
			C535.732,332.689,536.002,332.698,536.176,332.684z"/>
		<path fill-rule="evenodd" clip-rule="evenodd" fill="#F9FAFB" d="M560.637,332.239c0.547,0.012,1.076-0.041,1.365,0.466
			c0.169,0.294-0.286,0.839-0.91,1.154c-0.733,0.371-1.664,0.27-2.23-0.243c-0.419-0.38-0.404-0.709,0.085-0.98
			C559.484,332.338,560.081,332.238,560.637,332.239z"/>
	</g>
</g>
</svg>
